<svg width="129" height="96" viewBox="0 0 129 96" fill="none" xmlns="http://www.w3.org/2000/svg">
<path d="M128.129 83.8992H0V83.9632H128.129V83.8992Z" fill="#EBEBEB"/>
<path d="M21.9307 86.3389H13.4434V86.4029H21.9307V86.3389Z" fill="#EBEBEB"/>
<path d="M54.7549 85.6443H43.8562V85.7084H54.7549V85.6443Z" fill="#EBEBEB"/>
<path d="M28.8701 87.2383H23.9525V87.3023H28.8701V87.2383Z" fill="#EBEBEB"/>
<path d="M115.291 88.2889H111.388V88.353H115.291V88.2889Z" fill="#EBEBEB"/>
<path d="M109.105 88.2889H100.318V88.353H109.105V88.2889Z" fill="#EBEBEB"/>
<path d="M85.0344 86.444H78.9277V86.508H85.0344V86.444Z" fill="#EBEBEB"/>
<path d="M60.7333 72.47H11.2549C10.8668 72.47 10.4946 72.3158 10.2202 72.0414C9.94579 71.767 9.79163 71.3948 9.79163 71.0067V1.45042C9.795 1.06457 9.95066 0.695678 10.2247 0.424033C10.4987 0.152387 10.869 -1.47928e-05 11.2549 1.07694e-09H60.7333C61.1214 1.07694e-09 61.4936 0.154162 61.768 0.428572C62.0424 0.702983 62.1965 1.07516 62.1965 1.46324V71.0067C62.1965 71.3948 62.0424 71.767 61.768 72.0414C61.4936 72.3158 61.1214 72.47 60.7333 72.47ZM11.2549 0.0512519C10.884 0.0519293 10.5285 0.199559 10.2662 0.461808C10.004 0.724057 9.85637 1.07955 9.85569 1.45042V71.0067C9.85637 71.3776 10.004 71.7331 10.2662 71.9954C10.5285 72.2576 10.884 72.4052 11.2549 72.4059H60.7333C61.1042 72.4052 61.4597 72.2576 61.7219 71.9954C61.9842 71.7331 62.1318 71.3776 62.1325 71.0067V1.45042C62.1318 1.07955 61.9842 0.724057 61.7219 0.461808C61.4597 0.199559 61.1042 0.0519293 60.7333 0.0512519H11.2549Z" fill="#EBEBEB"/>
<path d="M116.165 72.47H66.6811C66.2933 72.4693 65.9215 72.3149 65.6472 72.0407C65.373 71.7664 65.2186 71.3946 65.2179 71.0067V1.45042C65.2219 1.06478 65.3778 0.696275 65.6517 0.424773C65.9256 0.153271 66.2955 0.000653022 66.6811 0H116.165C116.55 0.0013337 116.919 0.154332 117.192 0.425832C117.465 0.697333 117.619 1.06546 117.623 1.45042V71.0067C117.623 71.3939 117.469 71.7653 117.196 72.0396C116.923 72.3139 116.552 72.4686 116.165 72.47ZM66.6811 0.0512519C66.3103 0.0519293 65.9548 0.199559 65.6925 0.461808C65.4303 0.724057 65.2826 1.07955 65.282 1.45042V71.0067C65.2826 71.3776 65.4303 71.7331 65.6925 71.9954C65.9548 72.2576 66.3103 72.4052 66.6811 72.4059H116.165C116.536 72.4052 116.891 72.2576 117.153 71.9954C117.416 71.7331 117.563 71.3776 117.564 71.0067V1.45042C117.563 1.07955 117.416 0.724057 117.153 0.461808C116.891 0.199559 116.536 0.0519293 116.165 0.0512519H66.6811Z" fill="#EBEBEB"/>
<path d="M78.7996 36.2274H106.442V8.51047L78.7996 8.51047V36.2274Z" fill="#F0F0F0"/>
<path d="M78.7995 8.5127H78.3229V36.2296H78.7995V8.5127Z" fill="#E0E0E0"/>
<path d="M81.2418 34.4773H104.003V10.2608L81.2418 10.2608V34.4773Z" fill="#FAFAFA"/>
<path d="M90.2032 29.2135H97.4117C98.9749 29.2135 100.02 27.9476 99.7462 26.3947L98.3445 18.3661C98.1888 17.5893 97.7748 16.888 97.17 16.3762C96.5652 15.8644 95.805 15.5723 95.0131 15.5472H87.8225C86.2593 15.5472 85.2138 16.8132 85.488 18.3661L86.8897 26.3947C87.0443 27.1688 87.4555 27.8682 88.0568 28.3797C88.658 28.8912 89.4143 29.185 90.2032 29.2135Z" fill="#F0F0F0"/>
<path d="M26.8995 44.6454H20.7493V82.5845H26.8995V44.6454Z" fill="#F0F0F0"/>
<path d="M53.8861 82.5872H21.3771V83.8966H53.8861V82.5872Z" fill="#F0F0F0"/>
<path d="M26.8996 82.5872H54.4269L54.4269 44.6481H26.8996L26.8996 82.5872Z" fill="#F5F5F5"/>
<path d="M28.0066 71.176H53.3198V64.4005H28.0066V71.176Z" fill="#F0F0F0"/>
<path d="M28.0066 80.0425H53.3198V73.267H28.0066V80.0425Z" fill="#F0F0F0"/>
<path d="M50.3241 63.9854H31.0022C30.8352 63.9854 30.6998 64.1207 30.6998 64.2877V64.6132C30.6998 64.7802 30.8352 64.9156 31.0022 64.9156H50.3241C50.4911 64.9156 50.6265 64.7802 50.6265 64.6132V64.2877C50.6265 64.1207 50.4911 63.9854 50.3241 63.9854Z" fill="#F5F5F5"/>
<path d="M50.3241 72.8545H31.0022C30.8352 72.8545 30.6998 72.9899 30.6998 73.1569V73.4823C30.6998 73.6493 30.8352 73.7847 31.0022 73.7847H50.3241C50.4911 73.7847 50.6265 73.6493 50.6265 73.4823V73.1569C50.6265 72.9899 50.4911 72.8545 50.3241 72.8545Z" fill="#F5F5F5"/>
<path d="M28.0066 53.5121H53.3198V46.7366H28.0066V53.5121Z" fill="#F0F0F0"/>
<path d="M28.0066 62.3121H53.3198V55.5367H28.0066V62.3121Z" fill="#F0F0F0"/>
<path d="M50.3241 46.3239H31.0022C30.8352 46.3239 30.6998 46.4592 30.6998 46.6262V46.9517C30.6998 47.1187 30.8352 47.2541 31.0022 47.2541H50.3241C50.4911 47.2541 50.6265 47.1187 50.6265 46.9517V46.6262C50.6265 46.4592 50.4911 46.3239 50.3241 46.3239Z" fill="#F5F5F5"/>
<path d="M50.3241 55.1187H31.0022C30.8352 55.1187 30.6998 55.254 30.6998 55.421V55.7465C30.6998 55.9135 30.8352 56.0489 31.0022 56.0489H50.3241C50.4911 56.0489 50.6265 55.9135 50.6265 55.7465V55.421C50.6265 55.254 50.4911 55.1187 50.3241 55.1187Z" fill="#F5F5F5"/>
<path d="M53.4299 6.42175H18.9093V36.7269H53.4299V6.42175Z" fill="#E6E6E6"/>
<path d="M57.1304 5.24292H16.6748C16.6298 5.24292 16.5853 5.25182 16.5438 5.26911C16.5023 5.28639 16.4646 5.31173 16.4329 5.34365C16.4012 5.37557 16.3762 5.41344 16.3592 5.45509C16.3422 5.49674 16.3337 5.54133 16.334 5.58631C16.334 5.6767 16.3699 5.76339 16.4338 5.82731C16.4977 5.89122 16.5844 5.92713 16.6748 5.92713H57.1304C57.221 5.92713 57.308 5.89131 57.3723 5.82746C57.4366 5.76362 57.4731 5.67693 57.4738 5.58631C57.4738 5.49524 57.4376 5.40789 57.3732 5.3435C57.3088 5.2791 57.2215 5.24292 57.1304 5.24292Z" fill="#E6E6E6"/>
<path d="M54.8957 6.42175H19.5935V36.7269H54.8957V6.42175Z" fill="#F0F0F0"/>
<path d="M53.4299 36.7271H18.9093V37.6983H54.4396L53.4299 36.7271Z" fill="#E6E6E6"/>
<path d="M57.3354 36.7271H22.0358L23.0429 37.6983H58.3451L57.3354 36.7271Z" fill="#F0F0F0"/>
<path d="M52.8457 34.6771V8.47205L21.6462 8.47205V34.6771H52.8457Z" fill="#FAFAFA"/>
<path d="M28.7292 34.6771L40.7632 8.47205H46.447L34.4105 34.6771H28.7292Z" fill="white"/>
<path d="M35.6302 34.6771L47.6667 8.47205H49.8808L37.8469 34.6771H35.6302Z" fill="white"/>
<path d="M52.8457 34.6771V8.47205H52.5843V34.6771H52.8457Z" fill="#E6E6E6"/>
<g opacity="0.4">
<path d="M21.6692 4.63074H18.1405V29.639H21.6692V4.63074Z" fill="#F0F0F0"/>
<path d="M23.0453 4.63062H20.2957V29.6389H23.0453V4.63062Z" fill="#E6E6E6"/>
<path d="M25.1979 4.63062H21.6692V29.6389H25.1979V4.63062Z" fill="#F0F0F0"/>
<path d="M26.574 4.63062H23.8243V29.6389H26.574V4.63062Z" fill="#E6E6E6"/>
<path d="M28.7266 4.63062H25.1979V29.6389H28.7266V4.63062Z" fill="#F0F0F0"/>
</g>
<g opacity="0.4">
<path d="M51.5337 4.63074H49.499V29.639H51.5337V4.63074Z" fill="#F0F0F0"/>
<path d="M52.3231 4.63062H50.7394V29.6389H52.3231V4.63062Z" fill="#E6E6E6"/>
<path d="M53.5658 4.63062H51.5311V29.6389H53.5658V4.63062Z" fill="#F0F0F0"/>
<path d="M54.3577 4.63062H52.774V29.6389H54.3577V4.63062Z" fill="#E6E6E6"/>
<path d="M55.6006 4.63062H53.5659V29.6389H55.6006V4.63062Z" fill="#F0F0F0"/>
</g>
<path d="M91.446 54.8932C91.4159 55.2639 91.4963 55.6352 91.6771 55.9602C91.8579 56.2852 92.131 56.5493 92.4619 56.7191C92.7928 56.8889 93.1666 56.9568 93.5361 56.9142C93.9055 56.8717 94.2541 56.7205 94.5377 56.4799C94.8213 56.2393 95.0272 55.92 95.1293 55.5624C95.2315 55.2048 95.2254 54.8249 95.1117 54.4708C94.998 54.1167 94.7819 53.8042 94.4907 53.5729C94.1995 53.3415 93.8462 53.2017 93.4756 53.1711C92.9782 53.1307 92.4851 53.2894 92.1045 53.6122C91.724 53.9351 91.4872 54.3958 91.446 54.8932Z" fill="#E0E0E0"/>
<path d="M96.6758 57.889C97.705 57.7376 98.4165 56.7805 98.2651 55.7514C98.1137 54.7222 97.1566 54.0107 96.1275 54.1621C95.0983 54.3135 94.3868 55.2706 94.5382 56.2997C94.6896 57.3289 95.6467 58.0404 96.6758 57.889Z" fill="#E0E0E0"/>
<path d="M97.8192 56.2617C97.789 56.6324 97.8694 57.0037 98.0503 57.3287C98.2311 57.6537 98.5042 57.9178 98.8351 58.0876C99.166 58.2575 99.5398 58.3254 99.9092 58.2828C100.279 58.2402 100.627 58.0891 100.911 57.8485C101.194 57.6078 101.4 57.2885 101.503 56.9309C101.605 56.5733 101.599 56.1935 101.485 55.8393C101.371 55.4852 101.155 55.1728 100.864 54.9414C100.573 54.7101 100.219 54.5703 99.8488 54.5397C99.6023 54.519 99.3542 54.5471 99.1187 54.6226C98.8832 54.698 98.6649 54.8192 98.4763 54.9792C98.2877 55.1392 98.1326 55.3348 98.0199 55.5549C97.9071 55.775 97.8389 56.0152 97.8192 56.2617Z" fill="#E0E0E0"/>
<path d="M87.9481 55.88C87.9179 56.2507 87.9983 56.622 88.1792 56.947C88.36 57.272 88.6331 57.5361 88.964 57.7059C89.2949 57.8757 89.6687 57.9436 90.0381 57.9011C90.4076 57.8585 90.7562 57.7073 91.0398 57.4667C91.3233 57.2261 91.5292 56.9068 91.6314 56.5492C91.7336 56.1916 91.7274 55.8117 91.6138 55.4576C91.5001 55.1035 91.284 54.791 90.9928 54.5597C90.7016 54.3283 90.3483 54.1885 89.9777 54.1579C89.4802 54.1175 88.9871 54.2762 88.6066 54.5991C88.2261 54.9219 87.9892 55.3826 87.9481 55.88Z" fill="#E0E0E0"/>
<path d="M102.688 57.8876C103.717 57.7362 104.428 56.7792 104.277 55.75C104.126 54.7209 103.168 54.0093 102.139 54.1608C101.11 54.3122 100.399 55.2692 100.55 56.2984C100.701 57.3275 101.659 58.0391 102.688 57.8876Z" fill="#E0E0E0"/>
<path d="M88.5104 55.8727C89.301 55.1965 89.3937 54.0075 88.7176 53.2169C88.0414 52.4263 86.8524 52.3336 86.0618 53.0097C85.2713 53.6859 85.1785 54.8749 85.8546 55.6655C86.5308 56.456 87.7198 56.5488 88.5104 55.8727Z" fill="#E0E0E0"/>
<path d="M82.7511 55.4521C82.7209 55.8228 82.8013 56.1941 82.9822 56.5191C83.163 56.8441 83.4361 57.1082 83.767 57.278C84.0978 57.4478 84.4717 57.5158 84.8411 57.4732C85.2106 57.4306 85.5591 57.2795 85.8427 57.0389C86.1263 56.7982 86.3322 56.4789 86.4344 56.1213C86.5366 55.7637 86.5304 55.3839 86.4167 55.0297C86.3031 54.6756 86.087 54.3631 85.7958 54.1318C85.5045 53.9005 85.1513 53.7607 84.7806 53.7301C84.2832 53.6897 83.7901 53.8483 83.4096 54.1712C83.029 54.4941 82.7922 54.9548 82.7511 55.4521Z" fill="#E0E0E0"/>
<path d="M80.6011 55.9592C80.6011 55.9592 80.924 63.6649 93.3064 63.6649C105.689 63.6649 106.012 55.9592 106.012 55.9592H80.6011Z" fill="#F0F0F0"/>
<path d="M113.077 63.6652H110.722V83.8968H113.077V63.6652Z" fill="#E6E6E6"/>
<path d="M113.705 63.6652H112.318V83.8968H113.705V63.6652Z" fill="#F0F0F0"/>
<path d="M103.057 63.6652H100.702V83.8968H103.057V63.6652Z" fill="#E6E6E6"/>
<path d="M103.498 63.6652H102.111V83.8968H103.498V63.6652Z" fill="#F0F0F0"/>
<path d="M80.7036 66.12H114.135V63.6676L80.7036 63.6676V66.12Z" fill="#F0F0F0"/>
<path d="M70.4866 63.6652H68.1316V83.8968H70.4866V63.6652Z" fill="#E6E6E6"/>
<path d="M70.9274 63.6652H69.541V83.8968H70.9274V63.6652Z" fill="#F0F0F0"/>
<path d="M67.7113 66.12H79.6965V63.6676H67.7113V66.12Z" fill="#E6E6E6"/>
<path d="M80.5037 63.6652H78.1487V83.8968H80.5037V63.6652Z" fill="#E6E6E6"/>
<path d="M81.1342 63.6652H79.7478V83.8968H81.1342V63.6652Z" fill="#F0F0F0"/>
<path d="M64.0647 95.472C91.5055 95.472 113.751 94.1732 113.751 92.5711C113.751 90.969 91.5055 89.6703 64.0647 89.6703C36.6238 89.6703 14.3787 90.969 14.3787 92.5711C14.3787 94.1732 36.6238 95.472 64.0647 95.472Z" fill="#F5F5F5"/>
<path d="M91.0949 90.0266C91.0952 90.5387 90.9138 91.0343 90.583 91.4252C90.2522 91.8161 89.7934 92.0769 89.2883 92.1613C83.071 93.2102 76.7218 93.2102 70.5045 92.1613C70.0015 92.0747 69.5454 91.8128 69.2171 91.4221C68.8888 91.0314 68.7094 90.537 68.7107 90.0266V69.2697H91.1052L91.0949 90.0266Z" fill="#019FAA"/>
<path opacity="0.3" d="M68.6979 69.6433V72.557C70.0458 73.0567 74.4714 73.4231 79.8964 73.4231C85.3214 73.4231 89.7547 73.0567 91.0949 72.557V69.6433H68.6979Z" fill="black"/>
<path d="M91.5152 71.8652C91.5152 72.5238 86.431 73.0568 79.8964 73.0568C73.3618 73.0568 68.2776 72.5238 68.2776 71.8652L68.0649 69.277H91.7407L91.5152 71.8652Z" fill="#019FAA"/>
<path d="M79.8964 70.4663C86.4307 70.4663 91.7279 69.934 91.7279 69.2773C91.7279 68.6206 86.4307 68.0883 79.8964 68.0883C73.3621 68.0883 68.0649 68.6206 68.0649 69.2773C68.0649 69.934 73.3621 70.4663 79.8964 70.4663Z" fill="#019FAA"/>
<path opacity="0.3" d="M79.8964 70.4663C86.4307 70.4663 91.7279 69.934 91.7279 69.2773C91.7279 68.6206 86.4307 68.0883 79.8964 68.0883C73.3621 68.0883 68.0649 68.6206 68.0649 69.2773C68.0649 69.934 73.3621 70.4663 79.8964 70.4663Z" fill="black"/>
<path opacity="0.2" d="M71.7012 88.5658C71.471 88.5651 71.2505 88.4734 71.0877 88.3106C70.9249 88.1479 70.8332 87.9273 70.8325 87.6971V75.7964C70.8332 75.5663 70.9249 75.3457 71.0877 75.1829C71.2505 75.0202 71.471 74.9284 71.7012 74.9277C71.9312 74.9291 72.1514 75.021 72.314 75.1837C72.4766 75.3463 72.5686 75.5665 72.57 75.7964V87.6971C72.5686 87.9271 72.4766 88.1473 72.314 88.3099C72.1514 88.4725 71.9312 88.5645 71.7012 88.5658Z" fill="black"/>
<path opacity="0.2" d="M88.0941 88.5658C87.8639 88.5651 87.6433 88.4734 87.4805 88.3106C87.3178 88.1479 87.226 87.9273 87.2253 87.6971V75.7964C87.226 75.5663 87.3178 75.3457 87.4805 75.1829C87.6433 75.0202 87.8639 74.9284 88.0941 74.9277C88.324 74.9291 88.5442 75.021 88.7068 75.1837C88.8695 75.3463 88.9614 75.5665 88.9628 75.7964V87.6971C88.9614 87.9271 88.8695 88.1473 88.7068 88.3099C88.5442 88.4725 88.324 88.5645 88.0941 88.5658Z" fill="black"/>
<path opacity="0.2" d="M82.6281 88.5658C82.3981 88.5645 82.178 88.4725 82.0153 88.3099C81.8527 88.1473 81.7607 87.9271 81.7594 87.6971V75.7964C81.7607 75.5665 81.8527 75.3463 82.0153 75.1837C82.178 75.021 82.3981 74.9291 82.6281 74.9277C82.8583 74.9284 83.0789 75.0202 83.2416 75.1829C83.4044 75.3457 83.4962 75.5663 83.4968 75.7964V87.6971C83.4962 87.9273 83.4044 88.1479 83.2416 88.3106C83.0789 88.4734 82.8583 88.5651 82.6281 88.5658Z" fill="black"/>
<path opacity="0.2" d="M77.1646 88.5658C76.9346 88.5645 76.7144 88.4725 76.5518 88.3099C76.3892 88.1473 76.2972 87.9271 76.2959 87.6971V75.7964C76.2972 75.5665 76.3892 75.3463 76.5518 75.1837C76.7144 75.021 76.9346 74.9291 77.1646 74.9277C77.3948 74.9284 77.6154 75.0202 77.7781 75.1829C77.9409 75.3457 78.0327 75.5663 78.0333 75.7964V87.6971C78.0327 87.9273 77.9409 88.1479 77.7781 88.3106C77.6154 88.4734 77.3948 88.5651 77.1646 88.5658Z" fill="black"/>
<path d="M49.4273 21.5668C49.4273 21.802 49.3575 22.0319 49.2269 22.2274C49.0962 22.423 48.9105 22.5754 48.6933 22.6654C48.476 22.7554 48.2369 22.7789 48.0063 22.733C47.7756 22.6872 47.5637 22.5739 47.3975 22.4076C47.2312 22.2413 47.1179 22.0295 47.072 21.7988C47.0262 21.5682 47.0497 21.3291 47.1397 21.1118C47.2297 20.8946 47.3821 20.7089 47.5776 20.5782C47.7732 20.4475 48.0031 20.3778 48.2382 20.3778C48.5536 20.3778 48.856 20.5031 49.079 20.7261C49.302 20.9491 49.4273 21.2515 49.4273 21.5668Z" fill="#263238"/>
<path d="M47.2823 21.7383C47.2707 21.7386 47.2593 21.7357 47.2493 21.7298C47.2393 21.7239 47.2312 21.7153 47.2259 21.705C47.1473 21.5606 47.0979 21.4022 47.0806 21.2387C47.0633 21.0753 47.0783 20.91 47.1248 20.7524C47.1713 20.5947 47.2484 20.4478 47.3517 20.3199C47.455 20.1921 47.5825 20.0858 47.7269 20.0073C47.8713 19.9287 48.0297 19.8793 48.1931 19.862C48.3566 19.8446 48.5219 19.8596 48.6795 19.9062C48.8371 19.9527 48.9841 20.0298 49.1119 20.1331C49.2398 20.2364 49.346 20.3639 49.4246 20.5083C49.4321 20.5233 49.4337 20.5407 49.4289 20.5569C49.4242 20.573 49.4135 20.5868 49.399 20.5954C49.3916 20.5994 49.3834 20.602 49.3751 20.6029C49.3667 20.6038 49.3582 20.6031 49.3501 20.6007C49.342 20.5983 49.3344 20.5943 49.3279 20.589C49.3213 20.5837 49.3159 20.5772 49.3118 20.5698C49.1695 20.3081 48.929 20.1137 48.6433 20.0294C48.3576 19.945 48.0501 19.9776 47.7884 20.12C47.5267 20.2624 47.3323 20.5029 47.248 20.7886C47.1637 21.0743 47.1963 21.3818 47.3387 21.6435C47.3427 21.6509 47.3453 21.659 47.3462 21.6674C47.3471 21.6758 47.3463 21.6843 47.3439 21.6924C47.3416 21.7005 47.3376 21.708 47.3323 21.7146C47.327 21.7211 47.3204 21.7266 47.313 21.7306C47.3035 21.7355 47.293 21.7382 47.2823 21.7383Z" fill="#263238"/>
<path d="M46.1267 26.9995C45.895 26.9985 45.6682 26.9334 45.4714 26.8113C45.2745 26.6892 45.1153 26.515 45.0115 26.3079C44.9077 26.1008 44.8634 25.869 44.8833 25.6383C44.9033 25.4075 44.9869 25.1868 45.1247 25.0006C45.223 24.869 45.3462 24.7581 45.4873 24.6741C45.6285 24.5901 45.7848 24.5347 45.9473 24.5112C45.9556 24.5097 45.9641 24.51 45.9722 24.5119C45.9804 24.5139 45.9881 24.5175 45.9948 24.5226C46.0015 24.5276 46.0072 24.534 46.0113 24.5413C46.0155 24.5486 46.0181 24.5566 46.0191 24.565C46.0213 24.5816 46.0169 24.5984 46.0068 24.6119C45.9967 24.6253 45.9818 24.6342 45.9652 24.6367C45.6706 24.6799 45.4052 24.8383 45.2274 25.0772C45.0496 25.316 44.9739 25.6157 45.0171 25.9104C45.0602 26.205 45.2187 26.4704 45.4575 26.6482C45.6964 26.826 45.9961 26.9017 46.2907 26.8585C46.3077 26.8558 46.3251 26.8599 46.339 26.87C46.3529 26.8801 46.3623 26.8953 46.365 26.9123C46.3677 26.9293 46.3636 26.9467 46.3535 26.9606C46.3434 26.9746 46.3282 26.9839 46.3112 26.9866C46.25 26.9947 46.1884 26.999 46.1267 26.9995Z" fill="#263238"/>
<path d="M52.5869 28.937C52.3465 28.9366 52.1115 28.8663 51.9104 28.7345C51.8961 28.7251 51.886 28.7105 51.8822 28.6938C51.8784 28.6771 51.8811 28.6595 51.8899 28.6448C51.8997 28.631 51.9145 28.6214 51.9312 28.618C51.9478 28.6147 51.9652 28.6179 51.9796 28.6269C52.2293 28.789 52.5333 28.8452 52.8245 28.7832C53.1157 28.7212 53.3704 28.5461 53.5325 28.2963C53.6946 28.0465 53.7508 27.7426 53.6888 27.4514C53.6268 27.1602 53.4517 26.9055 53.2019 26.7434C53.1876 26.7339 53.1775 26.7193 53.1737 26.7026C53.1699 26.6859 53.1727 26.6684 53.1814 26.6537C53.1913 26.6398 53.206 26.6302 53.2227 26.6269C53.2394 26.6236 53.2567 26.6267 53.2711 26.6358C53.5489 26.8166 53.7437 27.1002 53.8129 27.4244C53.882 27.7486 53.8199 28.087 53.6401 28.3655C53.5514 28.5041 53.4359 28.6235 53.3003 28.7168C53.1648 28.8101 53.012 28.8754 52.8509 28.9088C52.764 28.927 52.6756 28.9365 52.5869 28.937Z" fill="#263238"/>
<path d="M47.5719 25.2748C48.5003 25.2748 49.253 24.5222 49.253 23.5938C49.253 22.6654 48.5003 21.9127 47.5719 21.9127C46.6435 21.9127 45.8909 22.6654 45.8909 23.5938C45.8909 24.5222 46.6435 25.2748 47.5719 25.2748Z" fill="#263238"/>
<path d="M49.1497 27.4332C50.0203 26.5625 50.0203 25.1509 49.1497 24.2802C48.279 23.4096 46.8674 23.4096 45.9967 24.2802C45.1261 25.1509 45.1261 26.5625 45.9967 27.4331C46.8674 28.3038 48.279 28.3038 49.1497 27.4332Z" fill="#263238"/>
<path d="M47.8076 31.1561C49.1691 31.1561 50.2728 30.0524 50.2728 28.6909C50.2728 27.3294 49.1691 26.2257 47.8076 26.2257C46.4461 26.2257 45.3424 27.3294 45.3424 28.6909C45.3424 30.0524 46.4461 31.1561 47.8076 31.1561Z" fill="#263238"/>
<path d="M52.6732 29.4243C52.986 28.0992 52.1653 26.7715 50.8402 26.4588C49.5151 26.146 48.1874 26.9667 47.8746 28.2918C47.5619 29.6168 48.3825 30.9446 49.7076 31.2573C51.0327 31.5701 52.3605 30.7494 52.6732 29.4243Z" fill="#263238"/>
<path d="M58.4501 33.9441C58.4501 34.144 58.4501 34.3976 58.4681 34.6283C58.486 34.8589 58.486 35.1049 58.5014 35.3432C58.5347 35.8199 58.568 36.3017 58.6193 36.7809C58.7115 37.7427 58.8405 38.7002 59.0062 39.6535C59.0498 39.8893 59.0882 40.1302 59.1369 40.3659L59.2497 40.9476C59.2778 41.0399 59.2497 41.0219 59.2138 41.0194C59.1779 41.0168 59.2138 41.0655 59.365 41.0655C59.752 41.0267 60.1288 40.9182 60.4771 40.7452C60.6821 40.6529 60.8923 40.553 61.1024 40.4454C61.3125 40.3377 61.5252 40.2147 61.7174 40.1071L62.4657 40.9707C62.2872 41.1752 62.0972 41.3694 61.8968 41.5524C61.6995 41.7403 61.4906 41.9157 61.2715 42.0777C61.0419 42.2505 60.7995 42.4056 60.5463 42.5415C60.2583 42.6988 59.9494 42.8144 59.6289 42.8849C59.4312 42.928 59.2288 42.9452 59.0267 42.9362C58.78 42.9219 58.5383 42.861 58.3143 42.7568C58.076 42.6449 57.8639 42.4843 57.6916 42.2853C57.5436 42.1123 57.4227 41.9179 57.3328 41.7087C57.2632 41.5487 57.2067 41.3833 57.1637 41.2141L57.0638 40.84C56.992 40.5837 56.9331 40.3403 56.8716 40.0892C56.6318 39.0817 56.4471 38.062 56.3181 37.0346C56.254 36.522 56.2027 36.0095 56.172 35.4842C56.1566 35.2279 56.1438 34.9717 56.1361 34.7C56.1284 34.4284 56.1361 34.1875 56.1361 33.8826L58.4501 33.9441Z" fill="#FFB573"/>
<path d="M57.2072 31.1815C59.3931 32.8548 59.306 36.0094 59.306 36.0094L55.3955 36.9447C55.3955 36.9447 54.1962 33.7722 54.6831 32.6114C55.1905 31.4018 55.9772 30.2384 57.2072 31.1815Z" fill="#019FAA"/>
<path opacity="0.7" d="M57.2072 31.1815C59.3931 32.8548 59.306 36.0094 59.306 36.0094L55.3955 36.9447C55.3955 36.9447 54.1962 33.7722 54.6831 32.6114C55.1905 31.4018 55.9772 30.2384 57.2072 31.1815Z" fill="white"/>
<path d="M61.5713 40.402L62.217 39.3154L63.8366 41.0477C63.8366 41.0477 62.6757 41.7909 61.4713 41.2604L61.5713 40.402Z" fill="#FFB573"/>
<path d="M63.0141 38.7949L65.0924 40.0198L63.8367 41.0474L62.2172 39.3151L63.0141 38.7949Z" fill="#FFB573"/>
<path d="M44.9708 90.6799L47.2054 90.8952L48.5943 85.6598L46.3572 85.4446L44.9708 90.6799Z" fill="#FFB573"/>
<path d="M33.5161 86.2797L35.5226 87.3304L37.9084 82.5998L35.9019 81.5492L33.5161 86.2797Z" fill="#FFB573"/>
<path d="M36.0582 86.4104L34.2644 84.5884C34.2346 84.5564 34.194 84.5367 34.1504 84.5329C34.1069 84.5291 34.0635 84.5416 34.0286 84.5679L32.3809 85.78C32.3409 85.8121 32.3081 85.8523 32.2847 85.8979C32.2612 85.9436 32.2476 85.9936 32.2447 86.0448C32.2418 86.096 32.2497 86.1472 32.2679 86.1952C32.286 86.2432 32.314 86.2868 32.3501 86.3233C32.9856 86.9485 33.3239 87.2176 34.1132 88.0197C34.6001 88.5117 35.5995 89.6726 36.2709 90.3542C36.9423 91.0359 37.6496 90.408 37.4317 90.0646C36.4528 88.5271 36.2888 87.561 36.2273 86.7794C36.2162 86.6403 36.1563 86.5096 36.0582 86.4104Z" fill="#263238"/>
<path d="M47.554 90.2161H44.8453C44.7969 90.2166 44.7499 90.2328 44.7115 90.2624C44.6731 90.292 44.6454 90.3333 44.6326 90.3801L44.0535 92.5096C44.039 92.5602 44.0366 92.6135 44.0465 92.6652C44.0565 92.7168 44.0784 92.7655 44.1106 92.8071C44.1427 92.8488 44.1842 92.8823 44.2318 92.9049C44.2793 92.9276 44.3314 92.9388 44.3841 92.9375C45.3348 92.9375 45.7858 92.9375 46.9723 92.9375H50.6035C51.59 92.9375 51.7976 91.9407 51.3876 91.8484C49.5579 91.4435 48.5021 90.8849 47.9384 90.3519C47.8315 90.2604 47.6945 90.212 47.554 90.2161Z" fill="#263238"/>
<path opacity="0.2" d="M48.5918 85.6623L47.8769 88.3607H45.5834L46.3547 85.447L48.5918 85.6623Z" fill="black"/>
<path opacity="0.2" d="M35.8994 81.5492L37.9084 82.6024L36.6784 85.0394L34.6693 83.9862L35.8994 81.5492Z" fill="black"/>
<path d="M56.546 30.8588C56.546 30.8588 57.5352 31.2919 54.2192 44.4123L45.0092 43.6153C45.4884 39.8817 45.6909 37.5702 44.5659 29.721C45.8788 29.5672 47.2011 29.5081 48.5226 29.5442C49.9234 29.5654 51.321 29.6861 52.7047 29.9055C54.0004 30.1582 55.2825 30.4763 56.546 30.8588Z" fill="#019FAA"/>
<path opacity="0.7" d="M56.546 30.8588C56.546 30.8588 57.5352 31.2919 54.2192 44.4123L45.0092 43.6153C45.4884 39.8817 45.6909 37.5702 44.5659 29.721C45.8788 29.5672 47.2011 29.5081 48.5226 29.5442C49.9234 29.5654 51.321 29.6861 52.7047 29.9055C54.0004 30.1582 55.2825 30.4763 56.546 30.8588Z" fill="white"/>
<path d="M48.5227 29.47C48.5227 29.47 48.0101 29.47 47.3823 29.47C47.0107 30.0414 48.579 31.7097 50.5727 33.3497C51.0545 31.8557 51.813 31.8609 51.813 31.8609L48.5227 29.47Z" fill="white"/>
<path d="M52.7022 29.8723C52.7022 29.8723 52.9354 29.9056 53.494 30.0338C53.8631 30.6052 54.0706 32.0351 52.9815 33.2806C52.5536 31.743 51.8156 31.8814 51.8156 31.8814L52.7022 29.8723Z" fill="white"/>
<path d="M49.3426 24.87C49.4912 26.2384 49.5399 28.7139 48.5226 29.5442C48.5226 29.5442 49.6091 30.6563 51.8129 31.8812C53.412 30.7742 52.7047 29.9055 52.7047 29.9055C51.2338 29.4186 51.3696 28.309 51.7207 27.284L49.3426 24.87Z" fill="#FFB573"/>
<path opacity="0.2" d="M50.3139 25.8564L51.7208 27.2838C51.6344 27.521 51.5693 27.7654 51.526 28.0141C50.9622 27.8835 50.1422 27.2941 50.132 26.6893C50.1418 26.403 50.2034 26.1208 50.3139 25.8564Z" fill="black"/>
<path d="M54.6267 20.4058C55.5697 21.2412 55.8465 23.2759 54.9496 24.6571C54.6803 23.2569 54.572 21.8305 54.6267 20.4058Z" fill="#263238"/>
<path d="M49.0556 21.9973C48.8916 24.2499 48.7763 25.2006 49.7501 26.4998C51.2159 28.4551 54.0194 28.1604 54.8522 26.0027C55.6031 24.0577 55.744 20.7007 53.676 19.5168C53.2216 19.2515 52.7067 19.1073 52.1806 19.0979C51.6545 19.0885 51.1348 19.2143 50.6712 19.4632C50.2076 19.7121 49.8156 20.0758 49.5327 20.5195C49.2499 20.9632 49.0856 21.472 49.0556 21.9973Z" fill="#FFB573"/>
<path d="M48.7557 23.8118C50.4214 23.7478 51.344 21.5696 50.9263 20.6496C52.8149 21.6336 55.6747 22.4075 55.357 21.1416C54.929 19.4324 52.861 18.1793 50.3164 19.0916C48.8429 19.7322 47.5821 21.1416 48.7557 23.8118Z" fill="#263238"/>
<path d="M48.2484 23.8093C48.3196 24.24 48.557 24.6256 48.9096 24.883C49.3811 25.2187 49.8116 24.8446 49.8449 24.2987C49.8757 23.8042 49.6681 23.0354 49.1146 22.9175C48.9934 22.8934 48.8681 22.9001 48.7501 22.9368C48.6321 22.9736 48.5252 23.0393 48.4391 23.1279C48.353 23.2166 48.2904 23.3254 48.2571 23.4444C48.2238 23.5634 48.2208 23.6888 48.2484 23.8093Z" fill="#FFB573"/>
<path d="M54.2193 44.4122C54.2193 44.4122 56.3027 58.0067 55.1418 66.74C54.2629 73.3386 48.5919 87.5764 48.5919 87.5764L44.9094 87.4764C44.9094 87.4764 48.7123 73.6769 49.499 68.257C50.8444 58.9753 47.4746 43.8381 47.4746 43.8381L54.2193 44.4122Z" fill="#263238"/>
<path opacity="0.2" d="M50.6265 47.1976L48.661 50.2958C49.2529 53.9693 49.6285 57.6743 49.786 61.3918C52.5485 56.446 51.2518 49.814 50.6265 47.1976Z" fill="black"/>
<path d="M49.1659 87.7814L44.5378 87.6559L44.8197 86.167L49.6015 86.1952L49.1659 87.7814Z" fill="#019FAA"/>
<path d="M52.205 44.2661C52.205 44.2661 50.6675 59.3188 47.1542 67.5088C44.3123 74.1203 37.5368 84.6961 37.5368 84.6961L34.8307 83.1124C34.8307 83.1124 39.1871 71.3527 41.3371 66.945C46.5827 56.1386 41.7035 47.4694 45.0093 43.6255L52.205 44.2661Z" fill="#263238"/>
<path d="M37.8316 84.9269L34.3798 83.0332L34.941 81.5571L38.6183 83.6328L37.8316 84.9269Z" fill="#019FAA"/>
<path d="M44.9171 43.0645L44.4302 43.8537C44.3943 43.9127 44.4635 43.987 44.5711 43.9947L54.2295 44.8301C54.3115 44.8301 54.3859 44.8019 54.3935 44.7506L54.5499 43.9332C54.5499 43.8768 54.4909 43.823 54.4012 43.8153L45.0734 43.0081C45.0447 43.0037 45.0154 43.0066 44.9881 43.0164C44.9608 43.0263 44.9364 43.0428 44.9171 43.0645Z" fill="#019FAA"/>
<path d="M46.0805 44.2151L45.8242 44.1946C45.7755 44.1946 45.7396 44.1613 45.7448 44.1305L45.9549 43.0696C45.9549 43.0363 46.0087 43.0158 46.0574 43.0209L46.3136 43.0414C46.3649 43.0414 46.4008 43.0747 46.3931 43.1055L46.1855 44.1664C46.1753 44.1972 46.1266 44.2202 46.0805 44.2151Z" fill="#263238"/>
<path d="M53.5196 44.8585L53.2633 44.838C53.2121 44.838 53.1762 44.8046 53.1839 44.7739L53.394 43.713C53.394 43.6822 53.4453 43.6592 53.494 43.6643L53.7502 43.6848C53.7989 43.6848 53.8348 43.7181 53.8297 43.7489L53.6195 44.8098C53.6144 44.8456 53.558 44.8636 53.5196 44.8585Z" fill="#263238"/>
<path d="M49.7987 44.5378L49.5425 44.5147C49.4938 44.5147 49.4579 44.4814 49.463 44.4506L49.6731 43.3897C49.6731 43.359 49.7244 43.3359 49.7756 43.341L50.0319 43.3641C50.0806 43.3641 50.1165 43.3974 50.1113 43.4282L49.9012 44.4891C49.8961 44.5198 49.85 44.5403 49.7987 44.5378Z" fill="#263238"/>
<path d="M52.5843 23.1171C52.5587 23.299 52.6355 23.4605 52.7534 23.4758C52.8713 23.4912 52.9892 23.358 53.0097 23.176C53.0302 22.9941 52.9559 22.8326 52.838 22.8172C52.7201 22.8019 52.6073 22.9351 52.5843 23.1171Z" fill="#263238"/>
<path d="M54.6396 23.3939C54.6165 23.5759 54.6934 23.7373 54.8113 23.7527C54.9292 23.7681 55.047 23.6348 55.0675 23.4529C55.088 23.2709 55.0163 23.1095 54.8984 23.0941C54.7805 23.0787 54.6652 23.212 54.6396 23.3939Z" fill="#263238"/>
<path d="M54.8394 23.0968L55.2955 23.0302C55.2955 23.0302 55.029 23.3402 54.8394 23.0968Z" fill="#263238"/>
<path d="M53.8323 23.594C53.9392 24.0303 54.1047 24.4501 54.3244 24.842C54.223 24.8959 54.1111 24.927 53.9965 24.9332C53.8818 24.9394 53.7672 24.9205 53.6606 24.8778L53.8323 23.594Z" fill="#ED893E"/>
<path d="M52.5946 25.4211C52.2341 25.3036 51.9318 25.0536 51.7489 24.7215C51.7443 24.7109 51.7439 24.699 51.7477 24.6881C51.7515 24.6771 51.7592 24.6681 51.7694 24.6626C51.7803 24.6572 51.7929 24.6564 51.8044 24.6602C51.8159 24.664 51.8254 24.6723 51.8309 24.6831C51.9448 24.8827 52.1041 25.0527 52.2961 25.1791C52.488 25.3056 52.707 25.385 52.9354 25.4109C52.9469 25.4109 52.958 25.4154 52.9662 25.4236C52.9744 25.4318 52.979 25.4429 52.979 25.4544C52.979 25.466 52.9744 25.4771 52.9662 25.4852C52.958 25.4934 52.9469 25.498 52.9354 25.498C52.8193 25.4852 52.7049 25.4594 52.5946 25.4211Z" fill="#263238"/>
<path d="M51.649 22.0639C51.6341 22.0577 51.6209 22.0481 51.6106 22.0357C51.6021 22.0276 51.5954 22.0178 51.5908 22.007C51.5862 21.9962 51.5839 21.9846 51.5839 21.9729C51.5839 21.9612 51.5862 21.9496 51.5908 21.9388C51.5954 21.928 51.6021 21.9183 51.6106 21.9101C51.7361 21.7978 51.8871 21.7177 52.0505 21.6767C52.2138 21.6356 52.3847 21.6348 52.5485 21.6744C52.5597 21.6776 52.5701 21.683 52.5792 21.6903C52.5882 21.6977 52.5957 21.7067 52.6012 21.717C52.6067 21.7273 52.6101 21.7386 52.6112 21.7502C52.6122 21.7618 52.611 21.7735 52.6074 21.7846C52.6009 21.8073 52.5856 21.8265 52.565 21.838C52.5443 21.8495 52.52 21.8524 52.4972 21.8461C52.3624 21.8161 52.2224 21.8185 52.0887 21.8533C51.9551 21.8881 51.8316 21.9541 51.7285 22.0459C51.7173 22.0545 51.7044 22.0605 51.6907 22.0636C51.677 22.0667 51.6628 22.0668 51.649 22.0639Z" fill="#263238"/>
<path d="M55.5031 22.6097C55.4897 22.6044 55.4775 22.5966 55.4672 22.5866C55.3774 22.4812 55.264 22.3984 55.1362 22.345C55.0085 22.2915 54.8699 22.269 54.7318 22.2791C54.7201 22.2817 54.708 22.2818 54.6963 22.2793C54.6846 22.2769 54.6735 22.272 54.6638 22.265C54.6541 22.258 54.646 22.249 54.6401 22.2386C54.6341 22.2282 54.6304 22.2167 54.6293 22.2048C54.6256 22.1813 54.6313 22.1574 54.6453 22.1382C54.6592 22.1189 54.6802 22.106 54.7036 22.1023C54.8709 22.0872 55.0393 22.1124 55.1949 22.1757C55.3505 22.239 55.4887 22.3386 55.5979 22.4661C55.6104 22.481 55.6177 22.4994 55.6188 22.5187C55.6199 22.538 55.6148 22.5572 55.6041 22.5733C55.5934 22.5894 55.5778 22.6017 55.5596 22.6083C55.5414 22.6148 55.5216 22.6153 55.5031 22.6097Z" fill="#263238"/>
<path d="M57.5301 41.9445C57.696 41.4276 57.9621 40.9485 58.3132 40.5344C58.6643 40.1203 59.0935 39.7795 59.5763 39.5313C60.0591 39.2831 60.5861 39.1324 61.1271 39.0879C61.6682 39.0434 62.2127 39.1058 62.7296 39.2718C63.2465 39.4377 63.7256 39.7037 64.1397 40.0548C64.5538 40.4059 64.8946 40.8351 65.1428 41.3179C65.391 41.8008 65.5417 42.3277 65.5862 42.8688C65.6307 43.4098 65.5683 43.9543 65.4024 44.4712L63.8084 49.458L55.9362 46.9288L57.5301 41.9445Z" fill="#019FAA"/>
<path opacity="0.3" d="M57.5301 41.9445C57.696 41.4276 57.9621 40.9485 58.3132 40.5344C58.6643 40.1203 59.0935 39.7795 59.5763 39.5313C60.0591 39.2831 60.5861 39.1324 61.1271 39.0879C61.6682 39.0434 62.2127 39.1058 62.7296 39.2718C63.2465 39.4377 63.7256 39.7037 64.1397 40.0548C64.5538 40.4059 64.8946 40.8351 65.1428 41.3179C65.391 41.8008 65.5417 42.3277 65.5862 42.8688C65.6307 43.4098 65.5683 43.9543 65.4024 44.4712L63.8084 49.458L55.9362 46.9288L57.5301 41.9445Z" fill="black"/>
<path d="M49.7629 39.4485L48.3227 43.933C48.3016 43.9974 48.2935 44.0654 48.2988 44.133C48.3042 44.2006 48.3229 44.2664 48.3539 44.3267C48.3849 44.387 48.4275 44.4406 48.4794 44.4843C48.5312 44.528 48.5912 44.561 48.6558 44.5813L55.9336 46.9184L57.5326 41.9419C57.8681 40.8989 58.604 40.0319 59.5784 39.5312C60.5529 39.0305 61.6863 38.9371 62.7296 39.2716L54.9623 36.7757C53.9184 36.4419 52.7847 36.5359 51.8099 37.0369C50.8352 37.538 50.099 38.4053 49.7629 39.4485Z" fill="#019FAA"/>
<path d="M53.6684 42.8491L55.6749 36.6041C55.6818 36.5817 55.6838 36.558 55.6808 36.5348C55.6777 36.5115 55.6698 36.4892 55.6574 36.4692C55.645 36.4493 55.6285 36.4323 55.6089 36.4193C55.5894 36.4063 55.5673 36.3977 55.5442 36.3939L53.4941 36.0916L53.2378 36.9013L54.7318 37.3805L53.0405 42.6441L53.6684 42.8491Z" fill="#263238"/>
<path d="M52.6023 42.5058C52.5559 42.6506 52.5535 42.8058 52.5954 42.9519C52.6372 43.0979 52.7214 43.2284 52.8373 43.3266C52.9532 43.4249 53.0956 43.4866 53.2466 43.504C53.3976 43.5213 53.5503 43.4936 53.6855 43.4242C53.8207 43.3548 53.9323 43.2469 54.0062 43.1141C54.0801 42.9814 54.113 42.8297 54.1007 42.6782C54.0885 42.5267 54.0316 42.3823 53.9373 42.2632C53.843 42.144 53.7155 42.0554 53.5709 42.0087C53.4747 41.9776 53.3733 41.9658 53.2724 41.9739C53.1716 41.9821 53.0734 42.0101 52.9834 42.0563C52.8934 42.1024 52.8134 42.1659 52.748 42.2431C52.6826 42.3202 52.6331 42.4095 52.6023 42.5058Z" fill="#263238"/>
<path d="M56.3128 47.6643L66.4094 50.906C66.4461 50.9179 66.4848 50.9225 66.5232 50.9194C66.5617 50.9163 66.5992 50.9057 66.6335 50.888C66.6678 50.8704 66.6982 50.8462 66.7231 50.8167C66.748 50.7872 66.7668 50.7531 66.7785 50.7163C66.7908 50.6797 66.7956 50.6409 66.7927 50.6024C66.7898 50.5638 66.7792 50.5262 66.7615 50.4918C66.7438 50.4574 66.7194 50.4269 66.6898 50.4021C66.6601 50.3773 66.6258 50.3587 66.5888 50.3473L55.9336 46.9263C55.886 47.0744 55.8993 47.2354 55.9704 47.3738C56.0415 47.5122 56.1647 47.6167 56.3128 47.6643Z" fill="#019FAA"/>
<path opacity="0.2" d="M56.3128 47.6643L60.4386 48.9892C60.4755 49.0011 60.5143 49.0057 60.5529 49.0027C60.5916 48.9996 60.6292 48.989 60.6637 48.9714C60.6982 48.9538 60.7289 48.9295 60.7541 48.9C60.7792 48.8706 60.7983 48.8364 60.8102 48.7995C60.8336 48.7254 60.8268 48.6451 60.7913 48.576C60.7558 48.5069 60.6944 48.4546 60.6206 48.4305L55.9336 46.9263C55.886 47.0744 55.8993 47.2354 55.9704 47.3738C56.0415 47.5122 56.1647 47.6167 56.3128 47.6643Z" fill="black"/>
<path d="M45.65 33.3393L45.509 33.4956L45.3501 33.6775C45.2425 33.8005 45.1349 33.9338 45.0324 34.0594C44.8222 34.3156 44.6224 34.5898 44.4353 34.8666C43.661 35.9626 43.0515 37.1661 42.6261 38.4388C42.5236 38.7566 42.4288 39.0743 42.3545 39.3998C42.3288 39.4946 42.3263 39.5331 42.3135 39.5766C42.3115 39.6142 42.3115 39.6518 42.3135 39.6894C42.3094 39.7294 42.3094 39.7698 42.3135 39.8098C42.3135 39.8559 42.4006 39.9636 42.6107 40.0661C42.8634 40.1797 43.1295 40.2607 43.4026 40.307C44.0617 40.4117 44.7291 40.4555 45.3963 40.4376C46.0933 40.4376 46.8006 40.3761 47.5078 40.3018C48.2151 40.2275 48.9326 40.1353 49.6271 40.0302L49.9064 41.1398C48.4761 41.6053 47.0044 41.9323 45.5116 42.1161C44.7256 42.2184 43.9309 42.2356 43.1412 42.1674C42.6897 42.125 42.2464 42.0198 41.824 41.8548C41.5707 41.7532 41.3326 41.6169 41.1167 41.4499C40.8625 41.2505 40.6529 40.9999 40.5017 40.7144C40.2414 40.1788 40.1718 39.5703 40.3044 38.9898C40.3659 38.5977 40.4556 38.221 40.5607 37.8264C40.7618 37.0688 41.0293 36.3305 41.3602 35.62C41.6919 34.9078 42.0783 34.2224 42.5159 33.5699C42.7363 33.2445 42.9721 32.9293 43.2181 32.6192C43.3436 32.4654 43.4743 32.3142 43.6025 32.163L43.81 31.9401C43.8843 31.8607 43.9433 31.7966 44.0458 31.6992L45.65 33.3393Z" fill="#FFB573"/>
<path d="M49.0684 40.2662L50.8622 39.3154L50.9417 41.2425C50.9417 41.2425 49.6604 41.773 48.9275 41.1887L49.0684 40.2662Z" fill="#FFB573"/>
<path d="M52.3408 39.1692L52.0717 40.9451L50.9442 41.2423L50.8647 39.3153L52.3408 39.1692Z" fill="#FFB573"/>
<path d="M44.566 29.726C43.4359 29.9259 41.8547 33.165 41.8547 33.165L44.7018 35.7276C44.7018 35.7276 46.9645 33.2573 46.8441 31.7863C46.7416 30.5435 46.0036 29.4697 44.566 29.726Z" fill="#019FAA"/>
<path opacity="0.7" d="M44.566 29.726C43.4359 29.9259 41.8547 33.165 41.8547 33.165L44.7018 35.7276C44.7018 35.7276 46.9645 33.2573 46.8441 31.7863C46.7416 30.5435 46.0036 29.4697 44.566 29.726Z" fill="white"/>
<path d="M36.9398 87.3996C36.91 87.4035 36.8798 87.4035 36.8501 87.3996C36.5656 87.3842 36.2632 86.9486 36.1069 86.6923C36.1021 86.6851 36.0995 86.6767 36.0995 86.668C36.0995 86.6593 36.1021 86.6508 36.1069 86.6436C36.1116 86.636 36.1186 86.6302 36.127 86.6269C36.1353 86.6237 36.1445 86.6233 36.1531 86.6257C36.2453 86.6436 37.0423 86.823 37.1422 87.0921C37.1526 87.1213 37.1552 87.1527 37.1498 87.1833C37.1444 87.2138 37.1312 87.2424 37.1115 87.2664C37.0704 87.3285 37.0101 87.3753 36.9398 87.3996ZM36.2402 86.7487C36.4683 87.0998 36.6938 87.3099 36.8552 87.3202C36.892 87.3209 36.9283 87.3121 36.9606 87.2945C36.993 87.277 37.0202 87.2514 37.0397 87.2202C37.0508 87.209 37.0583 87.1948 37.0615 87.1793C37.0647 87.1639 37.0634 87.1478 37.0576 87.1331C36.9961 86.9691 36.5169 86.8153 36.2402 86.7487Z" fill="#019FAA"/>
<path d="M36.8577 86.6924C36.6214 86.7574 36.3735 86.768 36.1325 86.7232C36.125 86.7208 36.1182 86.7164 36.1128 86.7106C36.1074 86.7047 36.1036 86.6976 36.1018 86.6899C36.0982 86.6832 36.0963 86.6757 36.0963 86.6681C36.0963 86.6605 36.0982 86.653 36.1018 86.6463C36.1223 86.6284 36.5887 86.1722 36.9141 86.1953C36.9543 86.1959 36.9939 86.2059 37.0295 86.2246C37.0651 86.2433 37.0958 86.2702 37.1191 86.3029C37.1471 86.3329 37.1643 86.3713 37.168 86.4122C37.1718 86.453 37.1618 86.4939 37.1396 86.5284C37.066 86.6123 36.9671 86.6699 36.8577 86.6924ZM36.2402 86.6515C36.4964 86.6873 36.9756 86.6233 37.0756 86.4772C37.0909 86.4541 37.1038 86.4183 37.0576 86.3593C37.0421 86.3368 37.0215 86.3183 36.9974 86.3054C36.9734 86.2925 36.9466 86.2855 36.9192 86.285C36.6963 86.2696 36.3734 86.531 36.2402 86.6515Z" fill="#019FAA"/>
<path d="M48.5098 90.5595C48.262 90.5535 48.0155 90.5218 47.7743 90.4647C47.7659 90.4616 47.7586 90.4561 47.7534 90.4487C47.7483 90.4414 47.7455 90.4326 47.7455 90.4237C47.7455 90.4147 47.7483 90.4059 47.7534 90.3986C47.7586 90.3913 47.7659 90.3857 47.7743 90.3827C47.8845 90.3289 48.866 89.8702 49.112 90.0444C49.1342 90.0595 49.1518 90.0804 49.1631 90.1048C49.1744 90.1291 49.1789 90.1561 49.1761 90.1828C49.1749 90.2328 49.1623 90.282 49.1392 90.3264C49.1161 90.3708 49.0831 90.4093 49.0428 90.4391C48.8821 90.5338 48.6957 90.5759 48.5098 90.5595ZM47.9281 90.4057C48.2177 90.4596 48.7558 90.5313 48.9787 90.3647C49.0073 90.3423 49.0308 90.3139 49.0476 90.2817C49.0644 90.2494 49.0741 90.214 49.0761 90.1777C49.0784 90.1664 49.0771 90.1547 49.0725 90.1442C49.068 90.1337 49.0603 90.1248 49.0505 90.1187C48.9121 90.0239 48.333 90.2264 47.9204 90.4057H47.9281Z" fill="#019FAA"/>
<path d="M47.782 90.4594C47.7728 90.4619 47.763 90.4619 47.7538 90.4594C47.7476 90.4536 47.743 90.4463 47.7403 90.4383C47.7376 90.4302 47.737 90.4216 47.7384 90.4133C47.7384 90.3723 47.9716 89.4062 48.5072 89.4677C48.6405 89.4856 48.6763 89.5497 48.684 89.6035C48.7173 89.8597 48.0998 90.3441 47.8051 90.4671L47.782 90.4594ZM48.4534 89.5445C48.1151 89.5445 47.9178 90.1083 47.8512 90.3338C48.1715 90.1647 48.62 89.7624 48.5918 89.606C48.5918 89.5932 48.5918 89.5573 48.4918 89.5471L48.4534 89.5445Z" fill="#019FAA"/>
<path d="M52.7893 22.8199L53.2429 22.7533C53.2429 22.7533 52.9738 23.0634 52.7893 22.8199Z" fill="#263238"/>
<path d="M68.557 44.2586L58.6346 46.3086C58.465 46.3405 58.2895 46.3047 58.1459 46.2089C58.0022 46.1132 57.9017 45.965 57.8659 45.7961L57.402 43.6435L57.2355 42.8491L57.5276 41.942C57.5683 41.8118 57.617 41.6842 57.6737 41.5601C57.6801 41.5404 57.6887 41.5215 57.6993 41.5038C57.863 41.1305 58.0834 40.7847 58.3528 40.4787L58.8653 40.3711L67.3731 38.6055C67.5428 38.5736 67.7182 38.6094 67.8618 38.7052C68.0055 38.8009 68.106 38.9491 68.1418 39.118L69.0464 43.4744C69.0835 43.6431 69.053 43.8197 68.9615 43.9662C68.87 44.1128 68.7248 44.2177 68.557 44.2586Z" fill="#019FAA"/>
<path opacity="0.3" d="M68.065 38.8874L63.2781 43.7563L62.2531 43.3412L58.2657 41.7242L57.7045 41.4961C57.8682 41.1228 58.0886 40.777 58.3579 40.4711L58.8704 40.3634L67.3782 38.5978C67.5085 38.5718 67.6437 38.5855 67.7661 38.6371C67.8886 38.6887 67.9927 38.7759 68.065 38.8874Z" fill="black"/>
<path d="M68.065 38.8874L62.253 43.3488L61.8738 43.641L58.2221 41.8292L57.6788 41.573C57.6852 41.5533 57.6938 41.5343 57.7045 41.5166C57.8681 41.1433 58.0886 40.7975 58.3579 40.4915L58.8704 40.3839L67.3782 38.6183C67.5065 38.5902 67.6402 38.6007 67.7624 38.6486C67.8847 38.6965 67.99 38.7796 68.065 38.8874Z" fill="#019FAA"/>
<path opacity="0.2" d="M68.065 38.8874L62.253 43.3488L61.8738 43.641L58.2221 41.8292L57.6788 41.573C57.6852 41.5533 57.6938 41.5343 57.7045 41.5166C57.8681 41.1433 58.0886 40.7975 58.3579 40.4915L58.8704 40.3839L67.3782 38.6183C67.5065 38.5902 67.6402 38.6007 67.7624 38.6486C67.8847 38.6965 67.99 38.7796 68.065 38.8874Z" fill="white"/>
<path d="M80.6703 53.2455L77.6465 56.5051C77.5271 56.6322 77.3624 56.7069 77.1882 56.7132C77.014 56.7194 76.8444 56.6566 76.7163 56.5384L69.3001 49.6322C69.1725 49.5132 69.0972 49.3484 69.091 49.174C69.0848 48.9996 69.148 48.8298 69.2668 48.702L72.3009 45.4424C72.3597 45.3785 72.4306 45.3269 72.5094 45.2906C72.5883 45.2543 72.6736 45.234 72.7604 45.2309C72.8471 45.2278 72.9336 45.2419 73.0149 45.2725C73.0962 45.3031 73.1705 45.3495 73.2337 45.4091L80.6473 52.3153C80.7434 52.4046 80.8106 52.5207 80.8403 52.6485C80.8699 52.7764 80.8607 52.9102 80.8138 53.0328C80.7818 53.1131 80.7328 53.1857 80.6703 53.2455Z" fill="#019FAA"/>
<path opacity="0.3" d="M80.8036 53.0456L74.0589 51.9462L72.4932 45.2835C72.6127 45.2285 72.7458 45.21 72.8758 45.2306C73.0058 45.2511 73.1268 45.3096 73.2235 45.3988L80.6371 52.305C80.7379 52.3962 80.808 52.5163 80.8378 52.6489C80.8676 52.7815 80.8557 52.92 80.8036 53.0456Z" fill="black"/>
<path d="M80.8036 53.0456L74.2357 51.0878L72.4932 45.3066C72.6127 45.2515 72.7458 45.2331 72.8758 45.2536C73.0058 45.2742 73.1268 45.3327 73.2235 45.4219L80.6371 52.3281C80.7332 52.4175 80.8004 52.5335 80.83 52.6614C80.8597 52.7892 80.8505 52.923 80.8036 53.0456Z" fill="#019FAA"/>
<path opacity="0.2" d="M80.8036 53.0456L74.2357 51.0878L72.4932 45.3066C72.6127 45.2515 72.7458 45.2331 72.8758 45.2536C73.0058 45.2742 73.1268 45.3327 73.2235 45.4219L80.6371 52.3281C80.7332 52.4175 80.8004 52.5335 80.83 52.6614C80.8597 52.7892 80.8505 52.923 80.8036 53.0456Z" fill="white"/>
<path d="M83.3072 58.6141L86.6386 62.5041C86.7022 62.5785 86.7501 62.6651 86.7791 62.7586C86.8081 62.8522 86.8178 62.9506 86.8075 63.048C86.7972 63.1454 86.7671 63.2396 86.7191 63.325C86.6711 63.4104 86.6062 63.4851 86.5284 63.5445L79.2916 69.1822C79.17 69.2554 79.0255 69.2808 78.8863 69.2533C78.747 69.2258 78.6229 69.1475 78.5382 69.0336L75.9321 66.061C75.8831 66.0038 75.8425 65.9399 75.8116 65.8713C75.7633 65.777 75.7431 65.6708 75.7535 65.5654C75.764 65.4599 75.8046 65.3597 75.8706 65.2768L82.2771 58.5859C82.3771 58.4776 82.5092 58.4042 82.6541 58.3765C82.7989 58.3488 82.9488 58.3683 83.0817 58.4321C83.1677 58.4779 83.2443 58.5397 83.3072 58.6141Z" fill="#019FAA"/>
<path opacity="0.3" d="M83.0817 58.4401L81.4904 65.518L75.8219 65.8793C75.7735 65.785 75.7533 65.6788 75.7638 65.5734C75.7742 65.4679 75.8149 65.3677 75.8808 65.2848L82.2873 58.5939C82.3866 58.4878 82.5169 58.4158 82.6596 58.3882C82.8023 58.3606 82.95 58.3787 83.0817 58.4401Z" fill="black"/>
<path d="M83.0817 58.4398L80.4141 65.9508L75.8168 65.879C75.7684 65.7847 75.7482 65.6785 75.7587 65.5731C75.7691 65.4676 75.8098 65.3674 75.8757 65.2845L82.2822 58.5936C82.3819 58.4864 82.5131 58.4137 82.6568 58.3861C82.8006 58.3584 82.9494 58.3772 83.0817 58.4398Z" fill="#019FAA"/>
<path opacity="0.2" d="M83.0817 58.4398L80.4141 65.9508L75.8168 65.879C75.7684 65.7847 75.7482 65.6785 75.7587 65.5731C75.7691 65.4676 75.8098 65.3674 75.8757 65.2845L82.2822 58.5936C82.3819 58.4864 82.5131 58.4137 82.6568 58.3861C82.8006 58.3584 82.9494 58.3772 83.0817 58.4398Z" fill="white"/>
</svg>
