<svg width="64" height="64" viewBox="0 0 64 64" fill="none" xmlns="http://www.w3.org/2000/svg">
<path d="M46.9333 12.2666H16.2667C12.2667 12.2666 4.26666 14.9333 4.26666 22.9333C4.26666 30.9333 12.2667 33.5999 16.2667 33.5999H45.6C49.6 33.5999 57.6 36.2666 57.6 44.2666C57.6 52.2666 49.6 54.9333 45.6 54.9333H14.9333" stroke="white" stroke-width="6" stroke-linecap="round" stroke-linejoin="round"/>
<path d="M52.2667 17.6C53.6812 17.6 55.0377 17.0381 56.0379 16.0379C57.0381 15.0377 57.6 13.6812 57.6 12.2667C57.6 10.8522 57.0381 9.49564 56.0379 8.49545C55.0377 7.49525 53.6812 6.93335 52.2667 6.93335C50.8522 6.93335 49.4956 7.49525 48.4954 8.49545C47.4952 9.49564 46.9333 10.8522 46.9333 12.2667C46.9333 13.6812 47.4952 15.0377 48.4954 16.0379C49.4956 17.0381 50.8522 17.6 52.2667 17.6ZM9.6 60.2667C11.0145 60.2667 12.371 59.7048 13.3712 58.7046C14.3714 57.7044 14.9333 56.3478 14.9333 54.9334C14.9333 53.5189 14.3714 52.1623 13.3712 51.1621C12.371 50.1619 11.0145 49.6 9.6 49.6C8.18551 49.6 6.82895 50.1619 5.82876 51.1621C4.82857 52.1623 4.26666 53.5189 4.26666 54.9334C4.26666 56.3478 4.82857 57.7044 5.82876 58.7046C6.82895 59.7048 8.18551 60.2667 9.6 60.2667Z" stroke="white" stroke-width="5" stroke-linejoin="round"/>
</svg>
