<svg xmlns="http://www.w3.org/2000/svg" xmlns:xlink="http://www.w3.org/1999/xlink" version="1.1" width="256" height="256" viewBox="0 0 256 256" xml:space="preserve">
<g style="stroke: none; stroke-width: 0; stroke-dasharray: none; stroke-linecap: butt; stroke-linejoin: miter; stroke-miterlimit: 10; fill: none; fill-rule: nonzero; opacity: 1;" transform="translate(1.4065934065934016 1.4065934065934016) scale(2.81 2.81)">
	<circle cx="21.204" cy="59.854" r="18.214" style="stroke: none; stroke-width: 1; stroke-dasharray: none; stroke-linecap: butt; stroke-linejoin: miter; stroke-miterlimit: 10; fill: rgb(104,115,127); fill-rule: nonzero; opacity: 1;" transform="  matrix(1 0 0 1 0 0) "/>
	<circle cx="76.072" cy="65.132" r="12.932" style="stroke: none; stroke-width: 1; stroke-dasharray: none; stroke-linecap: butt; stroke-linejoin: miter; stroke-miterlimit: 10; fill: rgb(104,115,127); fill-rule: nonzero; opacity: 1;" transform="  matrix(1 0 0 1 0 0) "/>
	<path d="M 45.194 49.088 c -4.115 -9.158 -13.299 -15.542 -23.989 -15.542 c -8.12 0 -15.378 3.681 -20.204 9.462 l 4.952 6.909 c 3.251 -4.979 8.863 -8.276 15.252 -8.276 c 6.029 0 11.367 2.934 14.682 7.447 H 45.194 z" style="stroke: none; stroke-width: 1; stroke-dasharray: none; stroke-linecap: butt; stroke-linejoin: miter; stroke-miterlimit: 10; fill: rgb(90,173,255); fill-rule: nonzero; opacity: 1;" transform=" matrix(1 0 0 1 0 0) " stroke-linecap="round"/>
	<polygon points="53.83,17.32 49.05,17.32 53.1,35.2 58.11,35.99 " style="stroke: none; stroke-width: 1; stroke-dasharray: none; stroke-linecap: butt; stroke-linejoin: miter; stroke-miterlimit: 10; fill: rgb(104,115,127); fill-rule: nonzero; opacity: 1;" transform="  matrix(1 0 0 1 0 0) "/>
	<path d="M 17.927 33.754 l 3.52 -16.439 h -4.776 L 12.908 34.89 C 14.518 34.355 16.196 33.97 17.927 33.754 z" style="stroke: none; stroke-width: 1; stroke-dasharray: none; stroke-linecap: butt; stroke-linejoin: miter; stroke-miterlimit: 10; fill: rgb(104,115,127); fill-rule: nonzero; opacity: 1;" transform=" matrix(1 0 0 1 0 0) " stroke-linecap="round"/>
	<path d="M 57.875 17.315 H 12.624 v -2.322 c 0 -1.674 1.357 -3.031 3.031 -3.031 h 36.398 c 1.118 0 2.171 0.524 2.845 1.416 L 57.875 17.315 z" style="stroke: none; stroke-width: 1; stroke-dasharray: none; stroke-linecap: butt; stroke-linejoin: miter; stroke-miterlimit: 10; fill: rgb(90,173,255); fill-rule: nonzero; opacity: 1;" transform=" matrix(1 0 0 1 0 0) " stroke-linecap="round"/>
	<path d="M 77.161 11.932 h -2.469 h -0.86 c -1.397 0 -2.53 1.133 -2.53 2.53 v 0.86 v 4.938 h 3.39 v -3.567 c 0 -0.757 0.614 -1.371 1.371 -1.371 h 1.098 V 11.932 z" style="stroke: none; stroke-width: 1; stroke-dasharray: none; stroke-linecap: butt; stroke-linejoin: miter; stroke-miterlimit: 10; fill: rgb(161,180,191); fill-rule: nonzero; opacity: 1;" transform=" matrix(1 0 0 1 0 0) " stroke-linecap="round"/>
	<polygon points="75.68,38.74 75.68,20.26 69.94,20.26 69.94,37.84 " style="stroke: none; stroke-width: 1; stroke-dasharray: none; stroke-linecap: butt; stroke-linejoin: miter; stroke-miterlimit: 10; fill: rgb(104,115,127); fill-rule: nonzero; opacity: 1;" transform="  matrix(1 0 0 1 0 0) "/>
	<circle cx="21.205" cy="59.855" r="8.095" style="stroke: none; stroke-width: 1; stroke-dasharray: none; stroke-linecap: butt; stroke-linejoin: miter; stroke-miterlimit: 10; fill: rgb(161,180,191); fill-rule: nonzero; opacity: 1;" transform="  matrix(1 0 0 1 0 0) "/>
	<circle cx="76.073" cy="65.133" r="4.553" style="stroke: none; stroke-width: 1; stroke-dasharray: none; stroke-linecap: butt; stroke-linejoin: miter; stroke-miterlimit: 10; fill: rgb(161,180,191); fill-rule: nonzero; opacity: 1;" transform="  matrix(1 0 0 1 0 0) "/>
	<path d="M 63.74 61.231 c 1.656 -5.232 6.548 -9.026 12.328 -9.026 c 3.15 0 6.034 1.128 8.277 3 v -9.762 c 0 -3.074 -2.238 -5.691 -5.275 -6.167 l -25.971 -4.071 v 7.741 c 0 3.392 -2.75 6.142 -6.142 6.142 H 35.872 c 2.219 3.018 3.547 6.733 3.547 10.766 c 0 0.465 -0.035 0.92 -0.069 1.376 H 63.74 z" style="stroke: none; stroke-width: 1; stroke-dasharray: none; stroke-linecap: butt; stroke-linejoin: miter; stroke-miterlimit: 10; fill: rgb(90,173,255); fill-rule: nonzero; opacity: 1;" transform=" matrix(1 0 0 1 0 0) " stroke-linecap="round"/>
	<path d="M 32.266 35.988 l 1.139 -18.673 h -4.797 l -1.152 16.992 C 29.127 34.715 30.738 35.277 32.266 35.988 z" style="stroke: none; stroke-width: 1; stroke-dasharray: none; stroke-linecap: butt; stroke-linejoin: miter; stroke-miterlimit: 10; fill: rgb(104,115,127); fill-rule: nonzero; opacity: 1;" transform=" matrix(1 0 0 1 0 0) " stroke-linecap="round"/>
	<path d="M 21.205 79.068 c -10.595 0 -19.214 -8.619 -19.214 -19.214 s 8.619 -19.214 19.214 -19.214 c 10.594 0 19.213 8.619 19.213 19.214 S 31.799 79.068 21.205 79.068 z M 21.205 42.641 c -9.492 0 -17.214 7.722 -17.214 17.214 s 7.722 17.214 17.214 17.214 s 17.213 -7.722 17.213 -17.214 S 30.696 42.641 21.205 42.641 z" style="stroke: none; stroke-width: 1; stroke-dasharray: none; stroke-linecap: butt; stroke-linejoin: miter; stroke-miterlimit: 10; fill: rgb(0,0,0); fill-rule: nonzero; opacity: 1;" transform=" matrix(1 0 0 1 0 0) " stroke-linecap="round"/>
	<path d="M 76.068 79.068 c -7.682 0 -13.932 -6.25 -13.932 -13.932 c 0 -7.683 6.25 -13.933 13.932 -13.933 S 90 57.454 90 65.137 C 90 72.818 83.75 79.068 76.068 79.068 z M 76.068 53.204 c -6.579 0 -11.932 5.353 -11.932 11.933 c 0 6.579 5.353 11.932 11.932 11.932 S 88 71.716 88 65.137 C 88 58.557 82.648 53.204 76.068 53.204 z" style="stroke: none; stroke-width: 1; stroke-dasharray: none; stroke-linecap: butt; stroke-linejoin: miter; stroke-miterlimit: 10; fill: rgb(0,0,0); fill-rule: nonzero; opacity: 1;" transform=" matrix(1 0 0 1 0 0) " stroke-linecap="round"/>
	<path d="M 5.952 50.917 c -0.322 0 -0.625 -0.155 -0.813 -0.417 l -4.952 -6.91 c -0.265 -0.371 -0.247 -0.874 0.045 -1.223 c 5.209 -6.242 12.854 -9.822 20.972 -9.822 c 10.724 0 20.498 6.333 24.902 16.132 c 0.139 0.31 0.111 0.669 -0.073 0.953 c -0.184 0.285 -0.5 0.457 -0.839 0.457 h -9.308 c -0.318 0 -0.618 -0.151 -0.806 -0.408 c -3.237 -4.408 -8.424 -7.039 -13.875 -7.039 c -5.829 0 -11.217 2.924 -14.415 7.823 c -0.181 0.276 -0.486 0.445 -0.815 0.453 C 5.967 50.917 5.959 50.917 5.952 50.917 z M 2.27 43.064 l 3.676 5.129 c 3.629 -4.754 9.233 -7.553 15.258 -7.553 c 5.915 0 11.551 2.774 15.179 7.447 h 7.211 c -4.353 -8.276 -12.977 -13.542 -22.391 -13.542 C 13.938 34.545 7.081 37.641 2.27 43.064 z" style="stroke: none; stroke-width: 1; stroke-dasharray: none; stroke-linecap: butt; stroke-linejoin: miter; stroke-miterlimit: 10; fill: rgb(0,0,0); fill-rule: nonzero; opacity: 1;" transform=" matrix(1 0 0 1 0 0) " stroke-linecap="round"/>
	<path d="M 58.105 36.99 c -0.052 0 -0.104 -0.004 -0.155 -0.012 l -5.007 -0.785 c -0.404 -0.063 -0.729 -0.367 -0.82 -0.767 l -4.048 -17.89 c -0.066 -0.296 0.005 -0.607 0.194 -0.845 c 0.189 -0.238 0.478 -0.376 0.781 -0.376 h 4.776 c 0.466 0 0.871 0.322 0.975 0.777 l 4.278 18.675 c 0.074 0.323 -0.017 0.663 -0.243 0.905 C 58.646 36.876 58.381 36.99 58.105 36.99 z M 53.924 34.322 l 2.877 0.451 L 53.03 18.315 h -2.728 L 53.924 34.322 z" style="stroke: none; stroke-width: 1; stroke-dasharray: none; stroke-linecap: butt; stroke-linejoin: miter; stroke-miterlimit: 10; fill: rgb(0,0,0); fill-rule: nonzero; opacity: 1;" transform=" matrix(1 0 0 1 0 0) " stroke-linecap="round"/>
	<path d="M 12.908 35.89 c -0.243 0 -0.481 -0.088 -0.667 -0.255 c -0.268 -0.24 -0.386 -0.604 -0.311 -0.955 l 3.764 -17.575 c 0.099 -0.461 0.506 -0.791 0.978 -0.791 h 4.776 c 0.302 0 0.588 0.136 0.778 0.371 c 0.189 0.235 0.263 0.543 0.2 0.838 l -3.52 16.439 c -0.089 0.416 -0.432 0.73 -0.854 0.783 c -1.636 0.204 -3.26 0.571 -4.828 1.092 C 13.12 35.874 13.014 35.89 12.908 35.89 z M 17.927 33.754 h 0.01 H 17.927 z M 17.48 18.315 l -3.241 15.136 c 0.941 -0.249 1.896 -0.446 2.857 -0.592 l 3.114 -14.544 H 17.48 z" style="stroke: none; stroke-width: 1; stroke-dasharray: none; stroke-linecap: butt; stroke-linejoin: miter; stroke-miterlimit: 10; fill: rgb(0,0,0); fill-rule: nonzero; opacity: 1;" transform=" matrix(1 0 0 1 0 0) " stroke-linecap="round"/>
	<path d="M 57.875 18.315 H 12.623 c -0.552 0 -1 -0.448 -1 -1 v -2.322 c 0 -2.222 1.808 -4.03 4.031 -4.03 h 36.398 c 1.423 0 2.785 0.678 3.643 1.813 l 2.978 3.937 c 0.229 0.303 0.267 0.708 0.098 1.048 C 58.602 18.1 58.255 18.315 57.875 18.315 z M 13.623 16.315 h 42.242 L 54.1 13.981 c -0.481 -0.638 -1.247 -1.019 -2.047 -1.019 H 15.654 c -1.12 0 -2.031 0.911 -2.031 2.03 V 16.315 z" style="stroke: none; stroke-width: 1; stroke-dasharray: none; stroke-linecap: butt; stroke-linejoin: miter; stroke-miterlimit: 10; fill: rgb(0,0,0); fill-rule: nonzero; opacity: 1;" transform=" matrix(1 0 0 1 0 0) " stroke-linecap="round"/>
	<path d="M 74.692 21.26 h -3.39 c -0.553 0 -1 -0.448 -1 -1 v -5.798 c 0 -1.946 1.583 -3.529 3.529 -3.529 h 3.329 c 0.553 0 1 0.448 1 1 v 3.39 c 0 0.552 -0.447 1 -1 1 h -1.098 c -0.205 0 -0.371 0.167 -0.371 0.371 v 3.567 C 75.692 20.812 75.245 21.26 74.692 21.26 z M 72.303 19.26 h 1.39 v -2.567 c 0 -1.308 1.063 -2.371 2.371 -2.371 h 0.098 v -1.39 h -2.329 c -0.843 0 -1.529 0.686 -1.529 1.529 V 19.26 z" style="stroke: none; stroke-width: 1; stroke-dasharray: none; stroke-linecap: butt; stroke-linejoin: miter; stroke-miterlimit: 10; fill: rgb(0,0,0); fill-rule: nonzero; opacity: 1;" transform=" matrix(1 0 0 1 0 0) " stroke-linecap="round"/>
	<path d="M 75.684 39.745 c -0.052 0 -0.104 -0.004 -0.155 -0.012 l -5.747 -0.901 c -0.486 -0.076 -0.845 -0.495 -0.845 -0.988 V 20.26 c 0 -0.552 0.447 -1 1 -1 h 5.747 c 0.553 0 1 0.448 1 1 v 18.485 c 0 0.292 -0.128 0.57 -0.35 0.76 C 76.151 39.661 75.92 39.745 75.684 39.745 z M 70.937 36.989 l 3.747 0.587 V 21.26 h -3.747 V 36.989 z" style="stroke: none; stroke-width: 1; stroke-dasharray: none; stroke-linecap: butt; stroke-linejoin: miter; stroke-miterlimit: 10; fill: rgb(0,0,0); fill-rule: nonzero; opacity: 1;" transform=" matrix(1 0 0 1 0 0) " stroke-linecap="round"/>
	<path d="M 21.205 68.949 c -5.015 0 -9.095 -4.08 -9.095 -9.095 s 4.08 -9.095 9.095 -9.095 c 5.015 0 9.095 4.08 9.095 9.095 S 26.219 68.949 21.205 68.949 z M 21.205 52.76 c -3.912 0 -7.095 3.183 -7.095 7.095 s 3.183 7.095 7.095 7.095 s 7.095 -3.183 7.095 -7.095 S 25.117 52.76 21.205 52.76 z" style="stroke: none; stroke-width: 1; stroke-dasharray: none; stroke-linecap: butt; stroke-linejoin: miter; stroke-miterlimit: 10; fill: rgb(0,0,0); fill-rule: nonzero; opacity: 1;" transform=" matrix(1 0 0 1 0 0) " stroke-linecap="round"/>
	<path d="M 76.068 70.689 c -3.063 0 -5.554 -2.491 -5.554 -5.553 c 0 -3.063 2.491 -5.554 5.554 -5.554 c 3.062 0 5.554 2.491 5.554 5.554 C 81.622 68.198 79.131 70.689 76.068 70.689 z M 76.068 61.583 c -1.96 0 -3.554 1.594 -3.554 3.554 c 0 1.959 1.594 3.553 3.554 3.553 c 1.96 0 3.554 -1.594 3.554 -3.553 C 79.622 63.177 78.028 61.583 76.068 61.583 z" style="stroke: none; stroke-width: 1; stroke-dasharray: none; stroke-linecap: butt; stroke-linejoin: miter; stroke-miterlimit: 10; fill: rgb(0,0,0); fill-rule: nonzero; opacity: 1;" transform=" matrix(1 0 0 1 0 0) " stroke-linecap="round"/>
	<path d="M 21.205 79.068 c -0.552 0 -1 -0.447 -1 -1 v -4.301 c 0 -0.553 0.448 -1 1 -1 c 0.552 0 1 0.447 1 1 v 4.301 C 22.205 78.621 21.757 79.068 21.205 79.068 z" style="stroke: none; stroke-width: 1; stroke-dasharray: none; stroke-linecap: butt; stroke-linejoin: miter; stroke-miterlimit: 10; fill: rgb(0,0,0); fill-rule: nonzero; opacity: 1;" transform=" matrix(1 0 0 1 0 0) " stroke-linecap="round"/>
	<path d="M 21.205 47.031 c -0.552 0 -1 -0.447 -1 -1 v -4.3 c 0 -0.552 0.448 -1 1 -1 c 0.552 0 1 0.448 1 1 v 4.3 C 22.205 46.584 21.757 47.031 21.205 47.031 z" style="stroke: none; stroke-width: 1; stroke-dasharray: none; stroke-linecap: butt; stroke-linejoin: miter; stroke-miterlimit: 10; fill: rgb(0,0,0); fill-rule: nonzero; opacity: 1;" transform=" matrix(1 0 0 1 0 0) " stroke-linecap="round"/>
	<path d="M 39.373 60.899 h -4.301 c -0.552 0 -1 -0.447 -1 -1 c 0 -0.553 0.448 -1 1 -1 h 4.301 c 0.552 0 1 0.447 1 1 C 40.373 60.452 39.925 60.899 39.373 60.899 z" style="stroke: none; stroke-width: 1; stroke-dasharray: none; stroke-linecap: butt; stroke-linejoin: miter; stroke-miterlimit: 10; fill: rgb(0,0,0); fill-rule: nonzero; opacity: 1;" transform=" matrix(1 0 0 1 0 0) " stroke-linecap="round"/>
	<path d="M 7.336 60.899 H 3.036 c -0.552 0 -1 -0.447 -1 -1 c 0 -0.553 0.448 -1 1 -1 h 4.301 c 0.552 0 1 0.447 1 1 C 8.336 60.452 7.889 60.899 7.336 60.899 z" style="stroke: none; stroke-width: 1; stroke-dasharray: none; stroke-linecap: butt; stroke-linejoin: miter; stroke-miterlimit: 10; fill: rgb(0,0,0); fill-rule: nonzero; opacity: 1;" transform=" matrix(1 0 0 1 0 0) " stroke-linecap="round"/>
	<path d="M 8.357 73.747 c -0.256 0 -0.512 -0.098 -0.707 -0.293 c -0.391 -0.391 -0.391 -1.023 0 -1.414 l 3.041 -3.041 c 0.391 -0.391 1.023 -0.391 1.414 0 c 0.391 0.391 0.391 1.023 0 1.414 l -3.041 3.041 C 8.869 73.649 8.613 73.747 8.357 73.747 z" style="stroke: none; stroke-width: 1; stroke-dasharray: none; stroke-linecap: butt; stroke-linejoin: miter; stroke-miterlimit: 10; fill: rgb(0,0,0); fill-rule: nonzero; opacity: 1;" transform=" matrix(1 0 0 1 0 0) " stroke-linecap="round"/>
	<path d="M 31.011 51.094 c -0.256 0 -0.512 -0.098 -0.707 -0.293 c -0.391 -0.391 -0.391 -1.023 0 -1.414 l 3.041 -3.041 c 0.391 -0.391 1.023 -0.391 1.414 0 c 0.391 0.391 0.391 1.023 0 1.414 l -3.041 3.041 C 31.522 50.996 31.267 51.094 31.011 51.094 z" style="stroke: none; stroke-width: 1; stroke-dasharray: none; stroke-linecap: butt; stroke-linejoin: miter; stroke-miterlimit: 10; fill: rgb(0,0,0); fill-rule: nonzero; opacity: 1;" transform=" matrix(1 0 0 1 0 0) " stroke-linecap="round"/>
	<path d="M 34.051 73.747 c -0.256 0 -0.512 -0.098 -0.707 -0.293 l -3.041 -3.041 c -0.391 -0.391 -0.391 -1.023 0 -1.414 s 1.023 -0.391 1.414 0 l 3.041 3.041 c 0.391 0.391 0.391 1.023 0 1.414 C 34.563 73.649 34.307 73.747 34.051 73.747 z" style="stroke: none; stroke-width: 1; stroke-dasharray: none; stroke-linecap: butt; stroke-linejoin: miter; stroke-miterlimit: 10; fill: rgb(0,0,0); fill-rule: nonzero; opacity: 1;" transform=" matrix(1 0 0 1 0 0) " stroke-linecap="round"/>
	<path d="M 11.398 51.094 c -0.256 0 -0.512 -0.098 -0.707 -0.293 L 7.65 47.76 c -0.391 -0.391 -0.391 -1.023 0 -1.414 c 0.391 -0.391 1.023 -0.391 1.414 0 l 3.041 3.041 c 0.391 0.391 0.391 1.023 0 1.414 C 11.91 50.996 11.654 51.094 11.398 51.094 z" style="stroke: none; stroke-width: 1; stroke-dasharray: none; stroke-linecap: butt; stroke-linejoin: miter; stroke-miterlimit: 10; fill: rgb(0,0,0); fill-rule: nonzero; opacity: 1;" transform=" matrix(1 0 0 1 0 0) " stroke-linecap="round"/>
	<path d="M 76.068 79.068 c -0.553 0 -1 -0.447 -1 -1 v -2.965 c 0 -0.553 0.447 -1 1 -1 s 1 0.447 1 1 v 2.965 C 77.068 78.621 76.621 79.068 76.068 79.068 z" style="stroke: none; stroke-width: 1; stroke-dasharray: none; stroke-linecap: butt; stroke-linejoin: miter; stroke-miterlimit: 10; fill: rgb(0,0,0); fill-rule: nonzero; opacity: 1;" transform=" matrix(1 0 0 1 0 0) " stroke-linecap="round"/>
	<path d="M 76.068 56.169 c -0.553 0 -1 -0.447 -1 -1 v -2.965 c 0 -0.553 0.447 -1 1 -1 s 1 0.447 1 1 v 2.965 C 77.068 55.722 76.621 56.169 76.068 56.169 z" style="stroke: none; stroke-width: 1; stroke-dasharray: none; stroke-linecap: butt; stroke-linejoin: miter; stroke-miterlimit: 10; fill: rgb(0,0,0); fill-rule: nonzero; opacity: 1;" transform=" matrix(1 0 0 1 0 0) " stroke-linecap="round"/>
	<path d="M 63.74 62.23 H 39.349 c -0.278 0 -0.544 -0.116 -0.733 -0.32 c -0.189 -0.203 -0.285 -0.477 -0.264 -0.755 c 0.034 -0.457 0.066 -0.874 0.066 -1.301 c 0 -3.673 -1.159 -7.191 -3.352 -10.174 c -0.223 -0.305 -0.257 -0.708 -0.086 -1.044 c 0.17 -0.337 0.515 -0.549 0.892 -0.549 h 11.085 c 2.835 0 5.142 -2.307 5.142 -5.142 v -7.741 c 0 -0.292 0.128 -0.57 0.35 -0.76 c 0.223 -0.19 0.519 -0.272 0.806 -0.228 l 25.972 4.071 c 3.546 0.555 6.12 3.564 6.12 7.154 v 9.762 c 0 0.388 -0.225 0.741 -0.576 0.905 c -0.351 0.165 -0.767 0.112 -1.064 -0.138 c -2.14 -1.784 -4.852 -2.768 -7.637 -2.768 c -5.227 0 -9.798 3.347 -11.375 8.328 C 64.563 61.948 64.176 62.23 63.74 62.23 z M 40.412 60.23 h 22.617 c 2.034 -5.429 7.185 -9.026 13.04 -9.026 c 2.575 0 5.099 0.72 7.277 2.055 v -7.816 c 0 -2.599 -1.863 -4.776 -4.43 -5.179 l -24.817 -3.89 v 6.572 c 0 3.938 -3.204 7.142 -7.142 7.142 h -9.224 c 1.762 2.96 2.685 6.301 2.685 9.767 C 40.418 59.98 40.416 60.105 40.412 60.23 z" style="stroke: none; stroke-width: 1; stroke-dasharray: none; stroke-linecap: butt; stroke-linejoin: miter; stroke-miterlimit: 10; fill: rgb(0,0,0); fill-rule: nonzero; opacity: 1;" transform=" matrix(1 0 0 1 0 0) " stroke-linecap="round"/>
	<path d="M 89 66.137 h -2.965 c -0.553 0 -1 -0.447 -1 -1 s 0.447 -1 1 -1 H 89 c 0.553 0 1 0.447 1 1 S 89.553 66.137 89 66.137 z" style="stroke: none; stroke-width: 1; stroke-dasharray: none; stroke-linecap: butt; stroke-linejoin: miter; stroke-miterlimit: 10; fill: rgb(0,0,0); fill-rule: nonzero; opacity: 1;" transform=" matrix(1 0 0 1 0 0) " stroke-linecap="round"/>
	<path d="M 66.102 66.137 h -2.965 c -0.553 0 -1 -0.447 -1 -1 s 0.447 -1 1 -1 h 2.965 c 0.553 0 1 0.447 1 1 S 66.654 66.137 66.102 66.137 z" style="stroke: none; stroke-width: 1; stroke-dasharray: none; stroke-linecap: butt; stroke-linejoin: miter; stroke-miterlimit: 10; fill: rgb(0,0,0); fill-rule: nonzero; opacity: 1;" transform=" matrix(1 0 0 1 0 0) " stroke-linecap="round"/>
	<path d="M 66.924 75.28 c -0.256 0 -0.512 -0.098 -0.707 -0.293 c -0.391 -0.391 -0.391 -1.023 0 -1.414 l 2.097 -2.097 c 0.391 -0.391 1.023 -0.391 1.414 0 s 0.391 1.023 0 1.414 l -2.097 2.097 C 67.436 75.183 67.18 75.28 66.924 75.28 z" style="stroke: none; stroke-width: 1; stroke-dasharray: none; stroke-linecap: butt; stroke-linejoin: miter; stroke-miterlimit: 10; fill: rgb(0,0,0); fill-rule: nonzero; opacity: 1;" transform=" matrix(1 0 0 1 0 0) " stroke-linecap="round"/>
	<path d="M 83.116 59.089 c -0.256 0 -0.512 -0.098 -0.707 -0.293 c -0.391 -0.391 -0.391 -1.023 0 -1.414 l 2.096 -2.097 c 0.391 -0.391 1.023 -0.391 1.414 0 s 0.391 1.023 0 1.414 l -2.096 2.097 C 83.628 58.991 83.372 59.089 83.116 59.089 z" style="stroke: none; stroke-width: 1; stroke-dasharray: none; stroke-linecap: butt; stroke-linejoin: miter; stroke-miterlimit: 10; fill: rgb(0,0,0); fill-rule: nonzero; opacity: 1;" transform=" matrix(1 0 0 1 0 0) " stroke-linecap="round"/>
	<path d="M 85.212 75.28 c -0.256 0 -0.512 -0.098 -0.707 -0.293 l -2.096 -2.097 c -0.391 -0.391 -0.391 -1.023 0 -1.414 s 1.023 -0.391 1.414 0 l 2.096 2.097 c 0.391 0.391 0.391 1.023 0 1.414 C 85.724 75.183 85.468 75.28 85.212 75.28 z" style="stroke: none; stroke-width: 1; stroke-dasharray: none; stroke-linecap: butt; stroke-linejoin: miter; stroke-miterlimit: 10; fill: rgb(0,0,0); fill-rule: nonzero; opacity: 1;" transform=" matrix(1 0 0 1 0 0) " stroke-linecap="round"/>
	<path d="M 69.021 59.089 c -0.256 0 -0.512 -0.098 -0.707 -0.293 l -2.097 -2.097 c -0.391 -0.391 -0.391 -1.023 0 -1.414 s 1.023 -0.391 1.414 0 l 2.097 2.097 c 0.391 0.391 0.391 1.023 0 1.414 C 69.532 58.991 69.276 59.089 69.021 59.089 z" style="stroke: none; stroke-width: 1; stroke-dasharray: none; stroke-linecap: butt; stroke-linejoin: miter; stroke-miterlimit: 10; fill: rgb(0,0,0); fill-rule: nonzero; opacity: 1;" transform=" matrix(1 0 0 1 0 0) " stroke-linecap="round"/>
	<path d="M 59.089 49.573 c -0.553 0 -1 -0.447 -1 -1 v -5.587 c 0 -0.552 0.447 -1 1 -1 s 1 0.448 1 1 v 5.587 C 60.089 49.126 59.642 49.573 59.089 49.573 z" style="stroke: none; stroke-width: 1; stroke-dasharray: none; stroke-linecap: butt; stroke-linejoin: miter; stroke-miterlimit: 10; fill: rgb(0,0,0); fill-rule: nonzero; opacity: 1;" transform=" matrix(1 0 0 1 0 0) " stroke-linecap="round"/>
	<path d="M 65.16 49.573 c -0.553 0 -1 -0.447 -1 -1 v -5.587 c 0 -0.552 0.447 -1 1 -1 s 1 0.448 1 1 v 5.587 C 66.16 49.126 65.713 49.573 65.16 49.573 z" style="stroke: none; stroke-width: 1; stroke-dasharray: none; stroke-linecap: butt; stroke-linejoin: miter; stroke-miterlimit: 10; fill: rgb(0,0,0); fill-rule: nonzero; opacity: 1;" transform=" matrix(1 0 0 1 0 0) " stroke-linecap="round"/>
	<path d="M 32.266 36.988 c -0.144 0 -0.288 -0.031 -0.422 -0.093 c -1.46 -0.679 -3.016 -1.223 -4.625 -1.616 c -0.472 -0.115 -0.793 -0.554 -0.76 -1.039 l 1.151 -16.992 c 0.036 -0.525 0.472 -0.933 0.998 -0.933 h 4.797 c 0.276 0 0.54 0.114 0.729 0.315 c 0.189 0.201 0.287 0.471 0.27 0.746 l -1.139 18.673 c -0.02 0.33 -0.202 0.629 -0.486 0.798 C 32.62 36.94 32.443 36.988 32.266 36.988 z M 28.51 33.548 c 0.971 0.269 1.921 0.588 2.844 0.957 l 0.988 -16.19 h -2.799 L 28.51 33.548 z" style="stroke: none; stroke-width: 1; stroke-dasharray: none; stroke-linecap: butt; stroke-linejoin: miter; stroke-miterlimit: 10; fill: rgb(0,0,0); fill-rule: nonzero; opacity: 1;" transform=" matrix(1 0 0 1 0 0) " stroke-linecap="round"/>
</g>
</svg>